<?xml version="1.0" standalone="no"?><!DOCTYPE svg PUBLIC "-//W3C//DTD SVG 1.1//EN" "http://www.w3.org/Graphics/SVG/1.1/DTD/svg11.dtd"><svg t="1716042342849" class="icon" viewBox="0 0 1089 1024" version="1.1" xmlns="http://www.w3.org/2000/svg" p-id="968" xmlns:xlink="http://www.w3.org/1999/xlink" width="212.6953125" height="200"><path d="M469.097026 129.846701c137.763009 282.422701 330.406291 549.135316 573.448752 784.401504a3087.963897 3087.963897 0 0 1-996.846496 7.631863c243.869538-243.523829 435.782017-512.240684 573.693812-790.401094-50.105983 1.12465-100.233846 0.577641-150.296068-1.632273z" fill="#C99E6D" p-id="969"></path><path d="M1047.263179 942.552615a3116.749675 3116.749675 0 0 1-1006.290051 8.183248c-12.003556-1.859829-22.072889-9.417299-26.173265-19.626666-4.104752-10.196239-1.63665-21.40335 6.288411-29.210257 198.686632-195.846564 363.39747-408.510359 492.83282-629.584957a2681.947897 2681.947897 0 0 1-65.632273-127.698051c-4.406701-9.180991-4.209778-20.563145 0.363213-29.665368 4.581744-9.110974 12.773744-14.497915 21.429607-14.11282 49.414564 2.223043 98.903521 2.80506 148.370598 1.737299 8.660239-0.183795 16.843487 5.360684 21.416479 14.50229 4.559863 9.141607 4.75241 20.444991 0.328205 29.485949a2812.464137 2812.464137 0 0 1-65.649778 126.100786c129.216547 221.949812 293.774222 431.414701 491.091146 620.093265 4.831179 3.986598 8.235761 9.408547 9.342906 15.745094 2.756923 15.596308-9.636103 30.943179-27.718018 34.050188z m-937.795829-40.903111a3058.972444 3058.972444 0 0 0 869.472274-6.231521c-172.561504-175.694769-318.065778-367.49347-434.705504-569.273983-116.569709 200.520205-261.77641 394.397538-434.76677 575.505504zM512.700171 160.35665a2669.454222 2669.454222 0 0 0 31.551453 58.871247 2772.348718 2772.348718 0 0 0 31.542701-58.241094 2297.304615 2297.304615 0 0 1-63.094154-0.630153z" fill="#C99E6D" p-id="970"></path><path d="M288.995556 978.418872c19.315966-199.478701 135.758769-320.345709 264.100102-321.190291 128.354462-0.231932 245.26988 118.206359 265.391043 315.304479" fill="#402200" p-id="971"></path><path d="M851.403487 969.180991a3134.56465 3134.56465 0 0 1-65.855453 6.354052c-15.46065-172.828444-113.068855-289.848889-232.386735-289.341265-119.296 0.652034-216.43159 119.847385-231.15706 294.496273a3087.473778 3087.473778 0 0 1-66.004239-4.888068c9.671111-102.124308 46.316308-188.188444 100.894632-250.998154 54.810256-62.722188 122.656821-96.15535 196.126633-96.536068 73.46106-0.297573 141.460786 32.417915 196.516103 93.897299 54.832137 61.610667 91.774906 146.081915 101.866119 247.015931z" fill="#7F4400" p-id="972"></path></svg>