<?xml version="1.0" standalone="no"?><!DOCTYPE svg PUBLIC "-//W3C//DTD SVG 1.1//EN" "http://www.w3.org/Graphics/SVG/1.1/DTD/svg11.dtd"><svg t="1742105319296" class="icon" viewBox="0 0 1106 1024" version="1.1" xmlns="http://www.w3.org/2000/svg" p-id="9570" xmlns:xlink="http://www.w3.org/1999/xlink" width="216.015625" height="200"><path d="M1049.35619 2.817354L619.167831 320.961693l79.969523-187.462434z" fill="#E17726" p-id="9571"></path><path d="M57.213968 2.817354L483.501376 325.079365 407.432804 133.499259z" fill="#E27625" p-id="9572"></path><path d="M894.618413 740.747513L780.190476 915.640212l244.893122 67.399788 70.217143-238.391534z" fill="#E27625" p-id="9573"></path><path d="M11.702857 744.648466l69.783704 238.391534 244.676402-67.399788-114.211217-174.892699z" fill="#E27625" p-id="9574"></path><path d="M312.943069 445.35873l-68.049947 102.72508 242.509206 11.052698-8.235344-260.063492z" fill="#E27625" p-id="9575"></path><path d="M793.62709 445.35873l-168.82455-150.186667-5.634709 263.964445 242.509206-11.052698z" fill="#E27625" p-id="9576"></path><path d="M326.162963 915.640212L472.882116 845.206349 346.751323 746.165503z" fill="#E27625" p-id="9577"></path><path d="M633.688042 845.206349L780.190476 915.640212l-19.938201-169.474709z" fill="#E27625" p-id="9578"></path><path d="M780.190476 915.640212L633.688042 845.206349l11.919577 94.923175-1.300317 40.309841z" fill="#D5BFB2" p-id="9579"></path><path d="M326.162963 915.640212l136.099894 65.015873v-40.309842l10.619259-95.139894z" fill="#D5BFB2" p-id="9580"></path><path d="M464.863492 683.533545l-121.796402-35.75873 86.687831-39.442963z" fill="#233447" p-id="9581"></path><path d="M641.706667 683.533545l35.75873-75.201693 86.687831 39.442963z" fill="#233447" p-id="9582"></path><path d="M326.162963 915.640212l21.671958-174.892699-135.233016 3.684233z" fill="#CC6228" p-id="9583"></path><path d="M758.518519 740.747513l21.671957 174.892699 114.427937-171.208466z" fill="#CC6228" p-id="9584"></path><path d="M861.677037 548.08381l-242.509206 11.052698 21.671957 124.397037 35.758731-75.201693 86.68783 39.442963z" fill="#CC6228" p-id="9585"></path><path d="M343.06709 647.774815l86.687831-39.442963 35.75873 75.201693 21.671957-124.397037-242.292486-11.052698z" fill="#CC6228" p-id="9586"></path><path d="M244.893122 548.08381l101.858201 198.298412-3.467513-98.607407z" fill="#E27525" p-id="9587"></path><path d="M763.936508 647.774815l-3.900952 98.607407 101.641481-198.298412z" fill="#E27525" p-id="9588"></path><path d="M487.402328 559.136508l-21.671958 124.180317 28.390265 146.935873 6.501587-193.530582z" fill="#E27525" p-id="9589"></path><path d="M619.167831 559.136508L606.814815 636.288677l6.068148 195.047619 28.390265-146.719153z" fill="#E27525" p-id="9590"></path><path d="M641.706667 683.533545l-28.390265 146.719153 20.37164 14.520212 126.347514-98.607407 3.900952-98.390688z" fill="#F5841F" p-id="9591"></path><path d="M343.06709 647.991534l3.684233 98.390688L472.882116 845.206349l20.371641-14.520211-28.390265-146.719154z" fill="#F5841F" p-id="9592"></path><path d="M644.307302 980.005926l1.300317-40.309841-11.052698-9.318942h-162.539683l-10.619259 9.318942v40.309841l-136.099894-65.015873 47.678307 39.009524 96.440211 66.53291h165.573757l97.09037-66.53291L780.190476 915.640212z" fill="#C0AC9D" p-id="9593"></path><path d="M633.688042 845.206349l-20.37164-14.520211h-120.062645l-20.371641 14.520211-11.702857 94.923175 10.835979-9.318942h162.539683l11.269418 9.318942z" fill="#161616" p-id="9594"></path><path d="M1067.777354 341.766772l35.97545-175.759576L1049.35619 2.817354 633.688042 310.342434l159.939048 135.016296 226.038518 65.015873 49.845503-58.080846-21.671958-15.60381 34.458413-31.424339-26.439788-20.37164 34.458412-26.439788z" fill="#763E1A" p-id="9595"></path><path d="M2.817354 166.007196l36.408889 175.759576-23.405714 17.337567 34.891852 26.223068-26.223069 20.58836 34.458413 31.207619-21.671958 15.820529L86.687831 511.024762l225.821799-65.015873 159.939047-135.016296L57.213968 2.817354z" fill="#763E1A" p-id="9596"></path><path d="M1019.665608 511.024762l-226.038518-65.015873 68.049947 102.725079-101.641481 198.081693 134.366137-1.517037h201.115767z" fill="#F5841F" p-id="9597"></path><path d="M312.943069 445.35873L86.687831 511.024762 11.702857 744.648466h200.248889l134.366138 1.517037-101.641482-198.081693z" fill="#F5841F" p-id="9598"></path><path d="M619.167831 559.136508l14.520211-248.794074 65.015873-176.843175H407.432804l65.015873 176.843175 14.520212 248.794074 5.417989 78.019048v193.097142h120.929524V637.155556z" fill="#F5841F" p-id="9599"></path></svg>